<svg xmlns="http://www.w3.org/2000/svg" width="21.074" height="21.062" viewBox="0 0 21.074 21.062">
  <g id="call-8" transform="translate(-68.5 -68.5)">
    <path id="Path_18" data-name="Path 18" d="M167.563,162.3a5.263,5.263,0,1,0,5.263,5.263A5.266,5.266,0,0,0,167.563,162.3Z" transform="translate(-88.532 -88.532)" fill="#f2f2f2"/>
    <path id="Path_19" data-name="Path 19" d="M72.493,82.412a7.139,7.139,0,0,1-.831-3.381,7.459,7.459,0,0,1,.3-2.106H70.881a8.414,8.414,0,0,1,3.993-5.212,8.381,8.381,0,0,1,8.324,0,8.433,8.433,0,0,1,3.993,5.212H86.108a7.262,7.262,0,0,1,.3,2.106,7.156,7.156,0,0,1-.831,3.381l.781.781L87.9,84.732a10.539,10.539,0,1,0-17.726-.006ZM85.35,86.406H72.712a3.156,3.156,0,0,0-3.157,3.157H88.512A3.157,3.157,0,0,0,85.35,86.406Z" fill="#f2f2f2"/>
  </g>
</svg>
