<svg xmlns="http://www.w3.org/2000/svg" xmlns:xlink="http://www.w3.org/1999/xlink" width="871" height="715.958" viewBox="0 0 871 715.958">
  <defs>
    <clipPath id="clip-path">
      <rect id="Rectangle_14" data-name="Rectangle 14" width="871" height="715.958" fill="none"/>
    </clipPath>
    <filter id="Path_42" x="268.769" y="209.16" width="334.854" height="463.518" filterUnits="userSpaceOnUse">
      <feOffset dy="50" input="SourceAlpha"/>
      <feGaussianBlur stdDeviation="12.5" result="blur"/>
      <feFlood flood-opacity="0.161"/>
      <feComposite operator="in" in2="blur"/>
      <feComposite in="SourceGraphic"/>
    </filter>
  </defs>
  <g id="Group_19" data-name="Group 19" transform="translate(-307.138 -1479.043)">
    <g id="Group_17" data-name="Group 17" transform="translate(307.138 1479.043)">
      <g id="Group_16" data-name="Group 16" clip-path="url(#clip-path)">
        <path id="Path_23" data-name="Path 23" d="M121,271.041l5.623,9.172,24.513,21.748a.6.6,0,0,1,.2.447V306.5h.342a.6.6,0,0,1,.6.6v7.229h1.9a.6.6,0,0,1,.545.354l2.8,6.206h2.12a.594.594,0,0,1,.588.509l1.126,7.521,5.5,4.792a.534.534,0,0,1,.122.143l2.246,3.754a.581.581,0,0,1,.086.306v6.037l2.115,2.433a.624.624,0,0,1,.143.33l.423,3.912h3.343l1.642-1.149V346.04a.6.6,0,0,1,.385-.559l6.338-2.426v-5.224a.6.6,0,0,1,.6-.6h4.66l1.116-4.677-5.948-5.5a.6.6,0,0,1-.079-.791l4.077-5.585-2.3-1.675a.6.6,0,0,1-.249-.483V315.7a.612.612,0,0,1,.065-.268l2.959-5.865a.594.594,0,0,1,.533-.33h2.531v-2.249h-2.273a.6.6,0,0,1-.6-.6v-7.2a.6.6,0,0,1,.108-.342l1.869-2.693-2.23-2.471h-4.17a.6.6,0,0,1-.564-.4l-2.631-7.43-4.044-1.831a.6.6,0,0,1-.351-.545v-5.975h-2.868l-5.5,6.988v7.263a.6.6,0,0,1-.6.6h-6.574a.59.59,0,0,1-.514-.3l-6.283-10.79h-9.985a.6.6,0,0,1-.545-.351l-2.433-5.346h-7.753a.6.6,0,0,1-.449-.2.609.609,0,0,1-.143-.473l1.606-12.042h-4.718l-7.311,6.632Z" transform="translate(168.168 365.332)" fill="#303138"/>
        <path id="Path_24" data-name="Path 24" d="M220.642,251.732l2.438-11.005a.644.644,0,0,1,.105-.229l4.393-5.841V230.79l-3.876-2.638a.58.58,0,0,1-.191-.217l-4.462-8.484-8.36-7.191-11.039,6.9a.606.606,0,0,1-.588.026l-2.66-1.365h-5.8l-8.874,2.005-5.191,4.753a.578.578,0,0,1-.222.129l-5.239,1.666L155.229,241.3a.6.6,0,0,1-.409.162h-4.07a.6.6,0,0,1-.531-.327l-6.751-13.24-1.7,8.692,2.665,2.1a.592.592,0,0,1,.229.468V242.6a.605.605,0,0,1-.246.485l-8.874,6.431v5.332a.6.6,0,0,1-.043.225l-3.754,9.275,5.494,1.193a.6.6,0,0,1,.456.71l-1.948,8.962,3.967,7.574a.6.6,0,0,1,.038.461l-2.6,8.037a.6.6,0,0,1-.566.413h-9.22l-6.235,3.876a.613.613,0,0,1-.652-.014l-2.684-1.833V309l2.053,2.115h10.386a.6.6,0,0,1,.552.368l4.9,11.858a.576.576,0,0,1,.024.385l-1.984,7.253.805,1h5.346a.59.59,0,0,1,.449.205.6.6,0,0,1,.143.471L138.863,344.7h7.456a.592.592,0,0,1,.542.351L149.3,350.4h9.944a.6.6,0,0,1,.514.3l6.283,10.793h5.633v-6.873a.6.6,0,0,1,.129-.37l5.8-7.378a.6.6,0,0,1,.468-.229h3.754a.6.6,0,0,1,.6.6v6.187l3.927,1.776a.6.6,0,0,1,.318.346l2.574,7.272h4.013a.6.6,0,0,1,.444.2l2.548,2.827h5.37a.6.6,0,0,1,.4.151l7.867,7.036.918-1.713v-6.527l-1.221-1.568a.6.6,0,0,1-.117-.473l1.649-9.16L209.6,337.777a.6.6,0,0,1,.134-.435l19.618-23.975a.587.587,0,0,1,.461-.22H234.3l6.864-5.107L240.1,290.871a.6.6,0,0,1,.318-.566l6.058-3.167v-8.114l-25.679-26.75a.6.6,0,0,1-.153-.543" transform="translate(163.714 295.01)" fill="#303138"/>
        <path id="Path_25" data-name="Path 25" d="M144.836,271.327l3.926,1.776a.6.6,0,0,1,.315.344.6.6,0,0,0-.315-.344Z" transform="translate(201.301 377.106)" fill="#1d649e"/>
        <path id="Path_26" data-name="Path 26" d="M211.557,252.108h-.026a.609.609,0,0,1-.32-.093L193.645,240.84v7.626a.6.6,0,0,1-.32.531l-6.034,3.155,1.063,17.1a.6.6,0,0,1-.239.516l-7.282,5.42a.622.622,0,0,1-.356.117h-4.409l-19.281,23.566,1.5,15.644a.734.734,0,0,1,0,.163l-1.616,8.979,1.183,1.52a.6.6,0,0,1,.127.368v6.88a.617.617,0,0,1-.072.282l-1.123,2.1,1.541,1.379h3.838a.6.6,0,0,1,.358.117l4.357,3.25h1.692l3.537-4.8a.6.6,0,0,1,.834-.124l2.744,2.019,5.418-2.366a.588.588,0,0,1,.239-.05h41a.589.589,0,0,1,.277.069l7.115,3.714,39.672,4.679,16.351-1.814a.6.6,0,0,1,.562.26l9.8,14.523h5.461l10.625-6.4,3.377-27.448,10.023-81.48-73.34,10Z" transform="translate(217.738 334.045)" fill="#303138"/>
        <path id="Path_27" data-name="Path 27" d="M189.4,134.513v6.226l13.159,7.487h6.1a.6.6,0,0,1,.447.2l10.248,11.469h11.935a.593.593,0,0,1,.339.105l13.242,9.141h11.079a.6.6,0,0,1,.428.179l9.3,9.54,18.3,6.957a.6.6,0,0,1,.385.559v67.5L305.5,270.584a.526.526,0,0,1,.117.124l11.548,16.363a.6.6,0,0,1,.11.344v23.16L294.806,493.252,284.551,576.62l-3.124,25.4,1.7-1.025,6.2-16.17a.529.529,0,0,1,.081-.148L313.034,553.5a.6.6,0,0,1,.2-.167l37.363-19.719a.576.576,0,0,1,.2-.062l90.559-12.217,29.075-6.013,123.09-44.071,27.674-91.41-18.624-30.736-7.839,7.055a.593.593,0,0,1-.509.143L493.965,337.39a.594.594,0,0,1-.356-.217l-41.218-51.986a.6.6,0,0,1-.129-.37v-5.908l-7.057-3.886-3.7,2.282a.613.613,0,0,1-.6.012.592.592,0,0,1-.308-.521v-4.7a.594.594,0,0,1,.1-.323l6.209-9.583h-1.384l-2.352,3.685a.6.6,0,0,1-.5.275h-1.467a.6.6,0,0,1-.6-.6v-3.425h-3.549l-2.552,2.421a.6.6,0,0,1-.411.163h-5.63a.6.6,0,0,1-.478-.239l-6.567-8.785h-2.834a.6.6,0,0,1-.55-.37L412.545,242.1h-1.792a.6.6,0,0,1-.6-.6v-1.881l-3.7-15.216h-5.062a.6.6,0,0,1-.511-.289L392.444,210.2a.6.6,0,0,1,.511-.906h1.028l-2.058-2.868a.585.585,0,0,1-.112-.349v-5.552l-5.1-2.194a.6.6,0,0,1-.361-.55v-8.137a.6.6,0,0,1,.977-.459l4.646,3.862h1.649l2.084-3.274V180l-7.275-3.506a.6.6,0,0,1-.339-.54v-9.387a.6.6,0,0,1,.284-.509.591.591,0,0,1,.583-.024l3.7,1.876-7.461-8.6h-3.8a.582.582,0,0,1-.413-.17l-13.343-12.869H360.7a.6.6,0,0,1-.507-.28l-7.475-11.913h-1.549a.6.6,0,0,1-.6-.6v-1.563a.6.6,0,0,1,.6-.6h5.76V129.85l-7.265-2.249h-1.788a.656.656,0,0,1-.167-.022l-8.716-2.528a.6.6,0,0,1-.43-.574v-2.22h-1.594a.6.6,0,0,1-.6-.6V116.03a.6.6,0,0,1,.6-.6h1.243l-2.16-4.51a.593.593,0,0,1-.06-.258v-3.305h-4.1a.6.6,0,0,1-.547-.363l-2.476-5.75a.606.606,0,0,1-.048-.237V96.868l-3.9-4.18a.6.6,0,0,1-.16-.406V85.141L321.3,83.418H292.959a.6.6,0,0,1-.478-.237l-4.7-6.252a.6.6,0,0,1-.122-.361v-7.6l-5.886-6.716L242.394,57.93,239.937,59.5a.622.622,0,0,1-.373.093l-12.2-1.03L205.258,78.531l-13.3,25.763L179.737,119.65v7.621l9.411,6.756a.592.592,0,0,1,.249.485" transform="translate(249.809 80.514)" fill="#303138"/>
        <path id="Path_28" data-name="Path 28" d="M233.849,240.089l-10.255,83.363,10.257-83.368,0,0" transform="translate(310.764 333.682)" fill="#1d649e"/>
        <path id="Path_29" data-name="Path 29" d="M201.205,147.179a.621.621,0,0,1,.33.024l11.541,4.259,5.7-2.007a.629.629,0,0,1,.2-.033h10.011a.543.543,0,0,1,.174.026l14.679,4.438a.589.589,0,0,1,.277.177l8.477,9.688h5.528l6.536-3.391a.591.591,0,0,1,.275-.067h2.818a.6.6,0,0,1,.6.6V166.6l3.073,3.308h9.124a.607.607,0,0,1,.392.146l3.852,3.343h4.331l8.18-5.982a.6.6,0,0,1,.879.2l12.038,22.532,8.661,7.165H329.93a.6.6,0,0,1,.4.153l11.392,10.181,5.174,4.624,2.029-2.514v-9.8a.6.6,0,0,1,.129-.373l12.284-15.419L374.63,158.4a.568.568,0,0,1,.131-.17l21.361-19.284-56.338-4.768a.591.591,0,0,1-.323-.129L231.609,47.941,162.941,10.2,111.105,0l-9.129,7.182a.613.613,0,0,1-.215.11L61.48,18.094l-4.333,15.19v7.834L69.4,55.476l36.443-3.535,30.915,3.429a.638.638,0,0,1,.27.1l10.46,7.112h34.158a.6.6,0,0,1,.342.108l12.43,8.658h10.092a.607.607,0,0,1,.39.143l4.514,3.867a.58.58,0,0,1,.167.239l2.316,5.972L223.926,90.8a.6.6,0,0,1,.234.473v2.5a.594.594,0,0,1-.275.5l-48.708,31.274V141.19a.593.593,0,0,1-.139.382l-7.191,8.589,4.8,2.975Z" transform="translate(79.426)" fill="#303138"/>
        <path id="Path_30" data-name="Path 30" d="M179.366,107.463a.6.6,0,0,0-.129.373.6.6,0,0,1,.129-.373L191.65,92.042l13.292-25.763L191.65,92.042Z" transform="translate(249.114 92.118)" fill="#1d649e"/>
        <path id="Path_31" data-name="Path 31" d="M180.269,163.695l20.256-9.134a.577.577,0,0,1,.246-.053h4.55l30.239-15.465a.6.6,0,0,1,.272-.067h4.1l7.318-8.737V114.5a.6.6,0,0,1,.272-.5l48.708-31.274V80.841L284.3,71.683a.592.592,0,0,1-.194-.258l-2.321-5.989-4.232-3.623H267.494a.6.6,0,0,1-.342-.108l-12.427-8.658H220.569a.579.579,0,0,1-.335-.105L209.743,45.81,179.1,42.4l-36.627,3.563a.6.6,0,0,1-.511-.208L129.365,30.991a.588.588,0,0,1-.143-.387V22.466a.535.535,0,0,1,.024-.163L133.4,7.723,94.753,18.09,135,63.079a.595.595,0,0,1-.134.906L121.686,72.1l-7.523,14.941a.6.6,0,0,1-.428.32L82.889,92.874,71.934,110.8a.586.586,0,0,1-.155.17L54.605,123.545a.619.619,0,0,1-.447.11l-45.173-7.26L4.428,136.861l16.1.891,4.94-3.979a.616.616,0,0,1,.3-.129l18.34-2.139a.641.641,0,0,1,.222.017l12.4,3.281a.6.6,0,0,1,.3.191l13.9,16.447L89.4,146.808a.586.586,0,0,1,.356.022l11.032,4.139h10.147l3.924-8.79a.629.629,0,0,1,.249-.275l9.22-5.313a.6.6,0,0,1,.9.519v17.637l6.343,8.36,18.727,1.974,7.136,0a.6.6,0,0,1,.516.3l3.133,5.384h2.956l6.868-3.441a.589.589,0,0,1,.566.019l4.894,2.846L180,163.938a.582.582,0,0,1,.27-.244" transform="translate(6.154 10.734)" fill="#303138"/>
        <path id="Path_32" data-name="Path 32" d="M69.384,32.446,56.789,17.684a.592.592,0,0,1-.143-.387.592.592,0,0,0,.143.387Z" transform="translate(78.73 24.04)" fill="#1d649e"/>
        <path id="Path_33" data-name="Path 33" d="M102.974,67.725l7.315-8.737Z" transform="translate(143.119 81.985)" fill="#1d649e"/>
        <path id="Path_34" data-name="Path 34" d="M133.472,43.643l-11.935-9.158Z" transform="translate(168.919 47.929)" fill="#1d649e"/>
        <path id="Path_35" data-name="Path 35" d="M220.548,153.836l9.93-12.052L219.9,134.567a.591.591,0,0,1-.244-.347l-5.045-20.146-14.074-11.416L182.611,98.9a.583.583,0,0,1-.179-.069L177.3,95.844,170.6,99.2a.6.6,0,0,1-.268.062h-3.441a.6.6,0,0,1-.516-.3l-3.131-5.384h-6.856l-19.047-2a.594.594,0,0,1-.413-.232l-6.62-8.728a.6.6,0,0,1-.122-.361v-16.8l-8.157,4.7-4.005,8.967a.6.6,0,0,1-.545.354H106.831a.63.63,0,0,1-.21-.038L95.664,75.327,77.025,80a.588.588,0,0,1-.6-.194L62.4,63.225,50.29,60.02,32.234,62.128l-4.983,4.015a.511.511,0,0,1-.406.131l-16.526-.915-1.245,5.6.014,9.261a.586.586,0,0,1-.057.253L0,99.67l2.736,3.382L7.38,99.293a.591.591,0,0,1,.48-.124l17.248,3.1a.6.6,0,0,1,.394.258L38.46,122.092a.6.6,0,0,1,.1.33V126.9l5.829,7.124h1.594a.6.6,0,0,1,.523.315l3.422,6.333a.587.587,0,0,1,.074.284v4.749l9.607,9.048a.6.6,0,0,1,.189.435v3.547l10.209,12.8a.585.585,0,0,1,.131.37v2.039l9.519,17.042h5.6a.595.595,0,0,1,.6.652l-.791,8.412,0,3.069,2.9,2.588h2.278a.582.582,0,0,1,.411.165l4.983,4.751a.624.624,0,0,1,.146.215l3.585,9.268,8.527,11.892a.6.6,0,0,1,.112.349v3.757l1.209,10.821a.6.6,0,0,1-.531.66l-3.138.346.292,2.641,9.743,11.271.9-6.634a.593.593,0,0,1,.59-.516h8.47l3.824-4.983a.6.6,0,0,1,.552-.229l7.452.973,3.037-3.276v-27.33h-4.722a.6.6,0,0,1-.581-.461L132.625,208.9l-10-9.665a.6.6,0,0,1-.182-.43v-4.094l-6.794-4.118H113.4l-2.705,1.812a.593.593,0,0,1-.542.065.606.606,0,0,1-.368-.409l-3.733-14.227a.6.6,0,0,1,.091-.5l3.513-4.949v-3.465l-6.056-2.28a.542.542,0,0,1-.208-.131l-5.153-5.026a.6.6,0,0,1-.179-.428V142.883H90.831a.6.6,0,0,1-.6-.6v-3.444a.6.6,0,0,1,.4-.564l19.191-6.754a.59.59,0,0,1,.488.041l9.285,5.15,8.991-5.038a.633.633,0,0,1,.294-.076h4.378a.6.6,0,0,1,.6.6v3.293l6.326,11.655h9.347a.6.6,0,0,1,.6.6v4.063l3.9,2.6a.6.6,0,0,1,.265.5v4.094h1.41l6.878-4.591a.584.584,0,0,1,.583-.043l7.1,3.3V152.39a.6.6,0,0,1,.6-.6h2.192a.6.6,0,0,1,.569.416l1.651,5.143,13.161,7.626,24.888-3.578a.615.615,0,0,1,.538.2l3.169,3.68,3.413-11.24a.591.591,0,0,1,.11-.206" transform="translate(0 83.419)" fill="#303138"/>
        <path id="Path_36" data-name="Path 36" d="M253.284,223.522l3.836-3.284V215.81h-2.115a.606.606,0,0,1-.456-.21l-4.051-4.765a.6.6,0,0,1-.143-.39V206.2l-3.752-7.851-7.977-2.987a.592.592,0,0,1-.387-.559V177.13l-8.713-1.855-14.074-3-10.9.012-7.994,8.028a.6.6,0,0,1-.423.174h-9.294l-12.413,4.022a.6.6,0,0,1-.184.029.593.593,0,0,1-.246-.053l-5.415-2.469a.594.594,0,0,1-.349-.542V165l-2.4-5.994a.607.607,0,0,1-.041-.284l2.163-20.818h-5.284a.6.6,0,0,1-.37-.129l-2.452-1.943a.6.6,0,0,1-.1-.839l3.759-4.741v-5.829l-3.52-4.089L135.223,123.9a.643.643,0,0,1-.385-.074L121.3,115.981a.6.6,0,0,1-.27-.337l-1.587-4.947h-1.159V116.3a.594.594,0,0,1-.848.54l-7.643-3.551-6.749,4.5a.584.584,0,0,1-.332.1h-2.187a.6.6,0,0,1-.6-.6v-4.371l-3.9-2.6a.6.6,0,0,1-.265-.5v-3.786H86.652a.6.6,0,0,1-.523-.313l-6.567-12.1a.584.584,0,0,1-.072-.284V90.505H75.864l-9.146,5.124a.6.6,0,0,1-.581,0L56.8,90.448,38.257,96.975V99.4h7.225a.6.6,0,0,1,.6.6v18.524l4.882,4.763,6.328,2.383a.594.594,0,0,1,.387.559v4.068a.59.59,0,0,1-.11.344L54.1,135.514l3.451,13.144,2.158-1.446a.609.609,0,0,1,.332-.1h2.6a.605.605,0,0,1,.308.086l7.225,4.378a.6.6,0,0,1,.289.511v4.177l9.944,9.612a.6.6,0,0,1,.167.292l2.409,10.2h4.847a.6.6,0,0,1,.6.6v28.162a.6.6,0,0,1-.16.406l-3.406,3.673a.581.581,0,0,1-.514.186l-7.418-.965-3.8,4.945a.6.6,0,0,1-.476.232h-8.24l-.97,7.16,2.2,2.536a.6.6,0,0,1,.146.39v3.532l3.035,3.492,3.525,1.2L73.5,229.9a.6.6,0,0,1,.934-.136l5.92,5.683h4.457a.586.586,0,0,1,.378.136l21.752,17.9a.594.594,0,0,1,.22.461v2.677l3.845,8h2.442a.6.6,0,0,1,.578.442l1.185,4.378,10.989-1.3a.594.594,0,0,1,.533.218l10.848,13.4h10.04a.6.6,0,0,1,.6.6v3.157h2.45l11.041-3.183a.566.566,0,0,1,.167-.024h5.948a.6.6,0,0,1,.6.6v8.355a.586.586,0,0,1-.036.2l-2.364,6.5,7.088,2.574a.6.6,0,0,1,.392.562v9.729h4.612l8.635-4.765A.573.573,0,0,1,187.2,306l9.827,2.794,6.044-8.623,19.487-16.92a.637.637,0,0,1,.177-.108l7.222-2.746v-2.077l-7.375-4.7a.6.6,0,0,1-.277-.507v-2.189a.6.6,0,0,1,.306-.523l18.593-10.41,1.606-8.778-1.714-3.829a.6.6,0,0,1,.3-.789l3.427-1.534a.567.567,0,0,1,.244-.053h6.639l1.369-21.071a.609.609,0,0,1,.208-.416" transform="translate(53.172 125.71)" fill="#303138"/>
        <path id="Path_37" data-name="Path 37" d="M198.094,409.682l2.012-7.351-4.672-11.3H185.2a.594.594,0,0,1-.43-.182l-2.4-2.471a.6.6,0,0,1-.167-.416V371.31a.6.6,0,0,1,.318-.528.613.613,0,0,1,.617.033l3.3,2.251,6.049-3.762a.61.61,0,0,1,.315-.088h8.955l2.392-7.385-3.953-7.542a.592.592,0,0,1-.053-.4L202,345.3l-5.112-1.109-.37.913a.6.6,0,0,1-.554.375h-7.153l-5.332,10.054V363.2a.6.6,0,0,1-.6.6h-9.705a.6.6,0,0,1-.435-.189l-7.724-8.2a.6.6,0,0,1-.16-.366l-1.393-19.112h-4.526a.6.6,0,0,1-.6-.6v-5.317a.608.608,0,0,1,.189-.437l5.272-4.9a.6.6,0,0,1,.406-.16h7.423l5.305-12.824v-9.27a.6.6,0,0,1,.155-.4l1.893-2.086a.6.6,0,0,1,.442-.2h3.441a.6.6,0,0,1,.55.366l3.274,7.7h4.612l17.391-3.59.024,0,.014-.007c.019,0,.036.01.057.01a.555.555,0,0,1,.249.038c.014.007.031.007.048.014s.033.033.055.048a.566.566,0,0,1,.1.057.535.535,0,0,1,.06.1c.014.022.041.029.05.053l7.37,14.454h3.465l15.773-14.86a.617.617,0,0,1,.229-.134l5.241-1.668,5.21-4.773a.6.6,0,0,1,.273-.141l9.163-2.055,6.075-.014a.6.6,0,0,1,.272.067l2.485,1.274,10.611-6.63-11.075-17.324a.592.592,0,0,1-.062-.514l2-5.824V253.345a.586.586,0,0,1,.124-.363l2.92-3.793-1.85-29.2h-7.638l-3.986,1.537a.573.573,0,0,1-.409.007l-5.325-1.845a.6.6,0,0,1-.4-.564V208.1l-5.427-5.375H225.854a.6.6,0,0,1-.535-.335l-8.838-17.974-3.95-10.616a.617.617,0,0,1-.038-.208v-4.132l-5.585-5.568a.6.6,0,0,1-.177-.423v-7.853h-6.474l-2.763,1.238,1.544,3.453a.591.591,0,0,1,.043.351l-1.69,9.237a.6.6,0,0,1-.3.413l-18.533,10.379v1.513l7.375,4.7a.6.6,0,0,1,.277.5v2.818a.6.6,0,0,1-.385.559l-7.507,2.856-19.308,16.741-6.192,8.862a.571.571,0,0,1-.5.227.545.545,0,0,1-.153,0l-10-2.842-8.556,4.72a.57.57,0,0,1-.287.074h-5.365a.6.6,0,0,1-.6-.6v-9.906l-7.256-2.636a.589.589,0,0,1-.337-.306.6.6,0,0,1-.019-.459l2.531-6.962v-7.655H117.02L105.979,196.1a.566.566,0,0,1-.167.024h-3.131a.6.6,0,0,1-.6-.6v-3.159H92.354a.6.6,0,0,1-.464-.22L81.074,178.779l-10.484,1.24,1.914,7.05,3.214,4.887a.611.611,0,0,1,.1.327v5.776L87.8,217.681a.6.6,0,0,1,.088.311V233.33a.6.6,0,0,1-.6.6h-.965v7.122l2.208,24.336h1.96a.6.6,0,0,1,.6.6v7.509a.6.6,0,0,1-.6.6h-2.28l8.47,18.854,17.374,24.592,33.288,19.074a.578.578,0,0,1,.232.241l4.464,8.551h5.9a.6.6,0,0,1,.6.6v7.557l4.108,3.578H164.3a.6.6,0,0,1,.6.6v6.665l4.911,5.807a.6.6,0,0,1,.141.387v4.335l4.632,2.529a.6.6,0,0,1,.239.81l-1.128,2.067v4.906l3.5,3.207a.6.6,0,0,1,.136.7l-1.161,2.419v3.434l3.052,4.512H181.4a.6.6,0,0,1,.562.39l4.213,11.457a.679.679,0,0,1,.036.208v1.907H188.2a.6.6,0,0,1,.6.6V416.4l1.623,2.646,8.608-7.81-.822-1.02a.594.594,0,0,1-.112-.533" transform="translate(98.11 216.291)" fill="#303138"/>
        <path id="Path_38" data-name="Path 38" d="M128.4,217.8l-.014.007a.619.619,0,0,1,.069,0c-.019,0-.036-.014-.055-.012" transform="translate(178.442 302.706)" fill="#1d649e"/>
        <path id="Path_39" data-name="Path 39" d="M128.682,217.96c-.012-.022-.038-.031-.05-.05l0,0c.012.019.038.026.048.048" transform="translate(178.78 302.864)" fill="#1d649e"/>
        <path id="Path_40" data-name="Path 40" d="M128.6,217.872c-.021-.014-.033-.038-.055-.05.014.01.022.029.038.038l.017.012" transform="translate(178.656 302.741)" fill="#1d649e"/>
        <path id="Path_41" data-name="Path 41" d="M110.7,183.99a.544.544,0,0,1-.153,0l-10-2.839,10,2.842a.65.65,0,0,0,.153,0" transform="translate(139.74 251.777)" fill="#1d649e"/>
        <g transform="matrix(1, 0, 0, 1, 0, 0)" filter="url(#Path_42)">
          <path id="Path_42-2" data-name="Path 42" d="M235.859,101.549l.657.445,9.2,6.2a.6.6,0,0,1,.265.495v4.7a.6.6,0,0,1-.265.5l-9.261,6.166L233,126.2a.6.6,0,0,1-.521.3h-4.725v14.831l12.375,16.287a.618.618,0,0,1,.12.363v1.565a.6.6,0,0,1-.6.6h-.966v3.566l3.064,3.68a.606.606,0,0,1,.139.382V176.8a.6.6,0,0,1-.6.6h-30.33l-4.837,8.018a.547.547,0,0,1-.131.155l-6.79,5.54a.574.574,0,0,1-.258.122l-14.554,2.963-9.705,9.153v6.027h1.336a.6.6,0,0,1,.583.729l-1.446,6.412a.6.6,0,0,1-.583.466H149.229a.6.6,0,0,1-.239-.05l-9.653-4.223-5.831,6.073v5.936a.591.591,0,0,1-.208.454l-3.852,3.3-1.389,21.361v8.18l5.587,5.566a.6.6,0,0,1,.174.425v4.273l3.888,10.46,8.651,17.585h18.4a.591.591,0,0,1,.421.172l5.779,5.724a.6.6,0,0,1,.177.425v10.843l4.715,1.632,3.886-1.5a.6.6,0,0,1,.215-.041h8.31a.6.6,0,0,1,.6.562l1.9,29.981a.586.586,0,0,1-.122.4L187.7,348.33v12.941a.533.533,0,0,1-.034.194l-1.936,5.645,11.2,17.515,8.711,7.492a.631.631,0,0,1,.141.177l4.443,8.455,4.015,2.732a.6.6,0,0,1,.26.495v4.383a.588.588,0,0,1-.12.358l-4.433,5.9-2.342,10.563,25.576,26.642,18.263,11.622,40.458-1.747,73.6-10.042,22.4-182.148,0-22.895-11.388-16.139-21.291-16.829a.6.6,0,0,1-.229-.468V145.792l-18.041-6.859a.629.629,0,0,1-.215-.143l-9.22-9.452H316.509a.6.6,0,0,1-.339-.107l-13.242-9.139H290.911a.588.588,0,0,1-.445-.2l-10.25-11.467h-5.991a.585.585,0,0,1-.3-.079l-13.6-7.738a.6.6,0,0,1-.3-.519V93.825l-8.465-6.077v.71a.6.6,0,0,1-.131.378L248.876,92a.586.586,0,0,1-.418.22l-.048,0a.6.6,0,0,1-.4-.151l-5.2-4.646-6.957,7.784Z" transform="translate(178.21 121.73)" fill="#976042"/>
        </g>
        <path id="Path_43" data-name="Path 43" d="M172.095,239.952l18.215,11.569L172.047,239.9Z" transform="translate(239.121 333.429)" fill="#1d649e"/>
        <path id="Path_44" data-name="Path 44" d="M220.955,114.558a.568.568,0,0,1-.215-.143l-9.22-9.452,9.22,9.454a.591.591,0,0,0,.215.141" transform="translate(293.983 145.884)" fill="#1d649e"/>
        <rect id="Rectangle_13" data-name="Rectangle 13" width="183.519" height="0.002" transform="translate(543.484 573.163) rotate(-82.988)" fill="#1d649e"/>
        <path id="Path_45" data-name="Path 45" d="M178.7,89.518a.608.608,0,0,1-.447-.148.6.6,0,0,0,.4.151l.048,0" transform="translate(247.742 124.211)" fill="#1d649e"/>
        <path id="Path_46" data-name="Path 46" d="M176.078,87.425h0l5.2,4.646Z" transform="translate(244.719 121.509)" fill="#1d649e"/>
        <path id="Path_47" data-name="Path 47" d="M128.056,155.4l0,8.164v-8.18Z" transform="translate(177.98 215.957)" fill="#1d649e"/>
        <path id="Path_48" data-name="Path 48" d="M189.254,206.348l7.753-1.955-2.134-8.529a.6.6,0,0,1,.2-.609l3.4-2.765a.6.6,0,0,1,.621-.081l6.309,2.8V183.3a.6.6,0,0,1,.344-.542l5.1-2.385a.578.578,0,0,1,.253-.057h2.932l.891-5.676a.581.581,0,0,1,.22-.378l22.809-18.079a.677.677,0,0,1,.139-.081l11.053-4.66,4.123-7.5a.612.612,0,0,1,.234-.234L275.117,131.7a.613.613,0,0,1,.289-.074h4.7a.6.6,0,0,1,.409.16l11.251,10.532h11.354l3.377-4.467-.4-.27a.6.6,0,0,1-.265-.495V130.2a.6.6,0,0,1,.153-.4l7.107-7.953-10.773-9.631H291.275a.6.6,0,0,1-.38-.139l-8.919-7.38a.585.585,0,0,1-.148-.177L270.06,82.489l-7.784,5.693a.6.6,0,0,1-.351.115h-4.749a.607.607,0,0,1-.392-.146l-3.852-3.341h-9.163a.6.6,0,0,1-.437-.191l-3.408-3.671a.6.6,0,0,1-.16-.406V75.193h-2.074l-6.536,3.391a.577.577,0,0,1-.275.067h-5.944a.593.593,0,0,1-.449-.2l-8.546-9.763-14.43-4.364h-9.822l-5.8,2.046a.608.608,0,0,1-.406,0l-11.581-4.275-28.628,5.972a.6.6,0,0,1-.437-.076l-5.442-3.374h-4.07L105.079,80.077a.594.594,0,0,1-.272.065h-4.567l-19.965,9-3.422,5.879,17.26,3.618a.652.652,0,0,1,.253.119L108.7,110.4a.6.6,0,0,1,.2.318l5.04,20.118,10.931,7.456a.6.6,0,0,1,.124.875L114.731,151.63l-3.666,12.078v6.171a.6.6,0,0,1-.129.373l-3.518,4.436,1.821,1.441h5.74a.6.6,0,0,1,.593.66l-2.215,21.332,2.387,5.963a.584.584,0,0,1,.043.222v16.2l4.854,2.213,12.279-3.979a.54.54,0,0,1,.184-.031h9.141l7.994-8.025a.6.6,0,0,1,.425-.177h11.268l13.985,2.968Z" transform="translate(106.813 86.295)" fill="#303138"/>
        <path id="Path_49" data-name="Path 49" d="M148.59,73.886l-3.41-3.671a.6.6,0,0,1-.16-.406.606.606,0,0,0,.16.409Z" transform="translate(201.557 97.024)" fill="#1d649e"/>
        <path id="Path_50" data-name="Path 50" d="M181.97,92.693l-10.776-9.631Z" transform="translate(237.935 115.444)" fill="#1d649e"/>
        <path id="Path_51" data-name="Path 51" d="M172.728,95.045l7.11-7.953Z" transform="translate(240.067 121.045)" fill="#1d649e"/>
        <path id="Path_52" data-name="Path 52" d="M139.7,224.477l-5.129.012a.593.593,0,0,1-.547-.366l-3.276-7.7h-2.782l-1.558,1.721V227.3a.586.586,0,0,1-.045.229l-5.5,13.3a.6.6,0,0,1-.552.368h-7.588l-4.909,4.565v4.46h4.486a.6.6,0,0,1,.6.554l1.415,19.453,7.4,7.853h8.847v-7.222a.582.582,0,0,1,.072-.282l5.571-10.5a.6.6,0,0,1,.526-.315h7.11l.409-1.008,3.977-9.827v-5.518a.6.6,0,0,1,.246-.485l8.874-6.431v-2.846l-2.727-2.146a.593.593,0,0,1-.217-.583l1.936-9.868-3.64.75Z" transform="translate(149.839 300.804)" fill="#303138"/>
        <path id="Path_53" data-name="Path 53" d="M123.057,239.854l3.977-9.825-3.979,9.827Z" transform="translate(171.028 319.708)" fill="#1d649e"/>
        <path id="Path_54" data-name="Path 54" d="M122.884,235.149l.406-1.006v0Z" transform="translate(170.792 325.422)" fill="#1d649e"/>
        <path id="Path_55" data-name="Path 55" d="M123.055,234.143l0,0h0Z" transform="translate(171.028 325.422)" fill="#1d649e"/>
        <path id="Path_56" data-name="Path 56" d="M245.226,102.14a.608.608,0,0,1-.48.237H232.858a.6.6,0,0,1-.409-.16L221.2,91.684h-4.3l-21.325,11.851-4.142,7.526a.6.6,0,0,1-.292.263l-11.168,4.71L157.4,133.915l-.934,5.953a.6.6,0,0,1-.59.507h-3.31l-4.636,2.168v12.451a.6.6,0,0,1-.844.545l-6.813-3.023-2.818,2.294,2.184,8.737a.6.6,0,0,1-.433.727l-8.2,2.048-11.949,6.407,7.588,1.618a.6.6,0,0,1,.476.586V192.67l7.812,2.928a.584.584,0,0,1,.33.3l3.912,8.19a.571.571,0,0,1,.062.258v4.163l3.728,4.388h1.84v-.277a.6.6,0,0,1,.165-.413l6.288-6.548a.592.592,0,0,1,.669-.131l9.92,4.34H186.6l1.178-5.217h-1.188a.6.6,0,0,1-.6-.6V197.17a.589.589,0,0,1,.189-.433l10.018-9.45a.576.576,0,0,1,.287-.151l14.578-2.968,6.594-5.38,4.957-8.219a.593.593,0,0,1,.511-.289h30.069v-8.2l-3.064-3.68a.608.608,0,0,1-.139-.385v-4.381a.6.6,0,0,1,.6-.6h.965v-.765l-12.372-16.287a.6.6,0,0,1-.122-.363v-15.63a.6.6,0,0,1,.6-.6h4.971l3.353-5.97a.59.59,0,0,1,.186-.206l9.115-6.068v-4.058l-8.467-5.707Z" transform="translate(165.48 127.428)" fill="#303138"/>
      </g>
    </g>
    <g id="Group_6633" data-name="Group 6633" transform="translate(675.003 2008.633)">
      <circle id="Ellipse_2" data-name="Ellipse 2" cx="17.38" cy="17.38" r="17.38" transform="translate(0 0)" fill="#97b370" opacity="0.5"/>
      <circle id="Ellipse_6" data-name="Ellipse 6" cx="5.793" cy="5.793" r="5.793" transform="translate(11.587 11.587)" fill="#97b370"/>
    </g>
  </g>
</svg>
