<svg xmlns="http://www.w3.org/2000/svg" width="18" height="19.996" viewBox="0 0 18 19.996">
  <g id="Group_6651" data-name="Group 6651" transform="translate(-3 -2.004)">
    <rect id="Rectangle_11" data-name="Rectangle 11" width="4" height="7" transform="translate(10 14)" fill="#976042"/>
    <path id="Path_17" data-name="Path 17" d="M20.42,10.18,12.71,2.3a1,1,0,0,0-1.42,0L3.58,10.19A2,2,0,0,0,3,11.62V20a2,2,0,0,0,1.89,2H8V13a1,1,0,0,1,1-1h6a1,1,0,0,1,1,1v9h3.11A2,2,0,0,0,21,20V11.62a2.07,2.07,0,0,0-.58-1.44Z" fill="#976042"/>
  </g>
</svg>
