<svg id="Group_3" data-name="Group 3" xmlns="http://www.w3.org/2000/svg" xmlns:xlink="http://www.w3.org/1999/xlink" width="48.592" height="113" viewBox="0 0 48.592 113">
  <defs>
    <clipPath id="clip-path">
      <rect id="Rectangle_8" data-name="Rectangle 8" width="48.592" height="113" fill="#976042"/>
    </clipPath>
  </defs>
  <path id="Path_1" data-name="Path 1" d="M0,0,5.146,6.789v22.4l6.714,8.4V6.789h3.7V0Z" transform="translate(0 -0.002)" fill="#976042"/>
  <g id="Group_2" data-name="Group 2">
    <g id="Group_1" data-name="Group 1" clip-path="url(#clip-path)">
      <path id="Path_2" data-name="Path 2" d="M86.128,30.594h1.79A1.8,1.8,0,0,1,89.707,32.4v10.53l6.713,2.806V32.4a8.634,8.634,0,0,0-1.733-5.2A8.634,8.634,0,0,0,96.42,22V8.6a8.55,8.55,0,0,0-8.5-8.6h-8.5V45.539l6.714-2.806Zm0-23.808h1.79A1.8,1.8,0,0,1,89.707,8.6V22a1.8,1.8,0,0,1-1.789,1.808h-1.79Z" transform="translate(-60.829)" fill="#976042"/>
      <path id="Path_3" data-name="Path 3" d="M185.272,9.033,178.475,0V37.677l6.8-8.5Z" transform="translate(-136.707 0)" fill="#976042"/>
      <path id="Path_4" data-name="Path 4" d="M65.28,140.928,59.142,148.6v11.1l-.659.61L57.06,161.63v-3.392l-4.754-1.987-6.659-2.783-.054.054-2.029,2.033L42.014,154l-.532-.533L35.3,156.052l-5.231,2.186v3.392l-1.495-1.383-.588-.544V148.6l-6.125-7.66-.039-.049v21.661l.039.047.974,1.171,13.815,16.6H50.479l14.828-17.82V140.894ZM42.815,160.087l.75-1.283.75,1.283,1.279.355,6.219,1.727v9.612l-5.755-1.9,2.759-5h-10.5l2.759,5-5.755,1.9v-9.612l6.7-1.86Z" transform="translate(-16.715 -107.921)" fill="#976042"/>
      <g id="Path_5" data-name="Path 5" transform="translate(-50.134 -324.043)" fill="#976042">
        <path d="M65.451,425.528h3.7v11.34h2.8v-11.34h3.658v-2.479H65.451Z" stroke="none"/>
        <path d="M 65.45099639892578 423.0482788085938 L 75.61225891113281 423.0482788085938 L 75.61225891113281 425.527587890625 L 71.95440673828125 425.527587890625 L 71.95440673828125 436.8676452636719 L 69.14980316162109 436.8676452636719 L 69.14980316162109 425.527587890625 L 65.45099639892578 425.527587890625 L 65.45099639892578 423.0482788085938 Z" stroke="none" fill="#976042"/>
      </g>
      <path id="Path_7" data-name="Path 7" d="M113.569,437.881h-2.7v10.161h2.723v-6.808l.407-.142a27.644,27.644,0,0,1,2.825-.711v-2.744a10.87,10.87,0,0,0-3.252,1.321Z" transform="translate(-84.92 -335.218)" fill="#976042"/>
      <rect id="Rectangle_1" data-name="Rectangle 1" width="2.723" height="10.161" transform="translate(33.506 102.663)" fill="#976042"/>
      <rect id="Rectangle_2" data-name="Rectangle 2" width="2.723" height="2.743" transform="translate(33.506 98.619)" fill="#976042"/>
      <path id="Path_11" data-name="Path 11" d="M59.189,357.525a6.907,6.907,0,0,0-1.546-.666c-.6-.187-1.032-.332-1.285-.431a1.982,1.982,0,0,1-.6-.355.625.625,0,0,1-.216-.495c0-.609.468-.905,1.431-.905a27.593,27.593,0,0,1,2.812.226l.118.014.179-1.773-.107-.019c-.844-.151-1.491-.255-1.923-.306a10.842,10.842,0,0,0-1.278-.079,3.8,3.8,0,0,0-2.5.751,2.757,2.757,0,0,0-.908,2.234,2.79,2.79,0,0,0,.306,1.363,2.6,2.6,0,0,0,.98.953,7.6,7.6,0,0,0,1.795.707,5.9,5.9,0,0,1,1.307.5.7.7,0,0,1,.341.652,2.094,2.094,0,0,1-.332,1.363,1.359,1.359,0,0,1-1.056.366H52.78a2.379,2.379,0,0,1-1.1-.243,1.834,1.834,0,0,1-.728-.654,1.7,1.7,0,0,1-.259-.917c0-.194.026-.521.077-.974s.112-.889.177-1.279l.019-.116-2-.32-.023.11c-.094.463-.183.976-.264,1.526a9.717,9.717,0,0,0-.122,1.337,2.977,2.977,0,0,0,.659,1.949,3.908,3.908,0,0,0,1.646,1.171,5.555,5.555,0,0,0,1.987.377h3.961a3.416,3.416,0,0,0,2.54-.93,4.005,4.005,0,0,0,.914-2.893,3.145,3.145,0,0,0-.253-1.35,2.175,2.175,0,0,0-.824-.893" transform="translate(-37.196 -270.186)" fill="#976042"/>
      <rect id="Rectangle_3" data-name="Rectangle 3" width="1.696" height="2.009" transform="translate(15.425 94.193)" fill="#976042"/>
      <rect id="Rectangle_4" data-name="Rectangle 4" width="1.696" height="2.009" transform="translate(17.583 94.193)" fill="#976042"/>
      <rect id="Rectangle_5" data-name="Rectangle 5" width="2.137" height="10.173" transform="translate(24.825 79.711)" fill="#976042"/>
      <rect id="Rectangle_6" data-name="Rectangle 6" width="1.696" height="2.009" transform="translate(37.759 79.455)" fill="#976042"/>
      <rect id="Rectangle_7" data-name="Rectangle 7" width="1.696" height="2.009" transform="translate(35.601 79.455)" fill="#976042"/>
      <path id="Path_12" data-name="Path 12" d="M129.956,358.1h-4.224v-5.367H123.6v7.458a2.04,2.04,0,0,1-.238,1.081.728.728,0,0,1-.661.351l-.607-.036v1.937l.109.007c.589.039.921.057,1.044.057a2.078,2.078,0,0,0,1.867-.977,4.93,4.93,0,0,0,.62-2.544h6.363v-7.333h-2.137Z" transform="translate(-93.518 -270.186)" fill="#976042"/>
    </g>
  </g>
</svg>
